<svg aria-hidden="true" style="position: absolute; width: 0; height: 0; overflow: hidden;" version="1.1" xmlns="http://www.w3.org/2000/svg" xmlns:xlink="http://www.w3.org/1999/xlink">
  <defs>
    <symbol id="icon-mobile-screen" viewBox="0 0 21 32">
      <path d="M16.935 2.286h-13.299c-1.377 0-2.494 1.152-2.494 2.571v22.286c0 1.42 1.117 2.571 2.494 2.571h13.299c1.377 0 2.494-1.152 2.494-2.571v-22.286c0-1.42-1.117-2.571-2.494-2.571zM12.779 26.238c0 0.52-0.374 0.905-0.831 0.905h-3.371c-0.41 0-0.784-0.386-0.784-0.857s0.374-0.857 0.831-0.857h3.325c0.457 0 0.831 0.386 0.831 0.809zM16.104 22.857h-11.636v-17.143h11.636v17.143z"></path>
    </symbol>
    <symbol id="icon-instagram" viewBox="0 0 32 32">
      <path fill="none" stroke-linejoin="round" stroke-linecap="round" stroke-miterlimit="4" stroke-width="2.6667" d="M22.667 2.667h-13.333c-3.682 0-6.667 2.985-6.667 6.667v13.333c0 3.682 2.985 6.667 6.667 6.667h13.333c3.682 0 6.667-2.985 6.667-6.667v-13.333c0-3.682-2.985-6.667-6.667-6.667z"></path>
      <path fill="none" stroke-linejoin="round" stroke-linecap="round" stroke-miterlimit="4" stroke-width="2.6667" d="M21.333 15.16c0.165 1.11-0.025 2.243-0.542 3.239s-1.334 1.803-2.336 2.308c-1.002 0.504-2.138 0.68-3.245 0.502s-2.131-0.701-2.924-1.494-1.316-1.816-1.494-2.924c-0.178-1.107-0.003-2.243 0.502-3.245s1.312-1.82 2.307-2.336c0.996-0.517 2.129-0.706 3.239-0.542 1.132 0.168 2.18 0.695 2.989 1.504s1.337 1.857 1.505 2.989z"></path>
      <path fill="none" stroke-linejoin="round" stroke-linecap="round" stroke-miterlimit="4" stroke-width="2.6667" d="M23.333 8.667h0.013"></path>
    </symbol>
    <symbol id="icon-fb" viewBox="0 0 19 32">
      <path fill="none" stroke-linejoin="round" stroke-linecap="round" stroke-miterlimit="4" stroke-width="2.9091" d="M17.455 1.455h-4.364c-1.929 0-3.779 0.766-5.143 2.13s-2.13 3.214-2.13 5.143v4.364h-4.364v5.818h4.364v11.636h5.818v-11.636h4.364l1.455-5.818h-5.818v-4.364c0-0.386 0.153-0.756 0.426-1.029s0.643-0.426 1.029-0.426h4.364v-5.818z"></path>
    </symbol>
    <symbol id="icon-twitter" viewBox="0 0 38 32">
      <path fill="none" stroke-linejoin="round" stroke-linecap="round" stroke-miterlimit="4" stroke-width="3.2" d="M36.8 1.616c-1.532 1.081-3.229 1.907-5.024 2.448-0.964-1.108-2.244-1.893-3.669-2.25s-2.924-0.267-4.296 0.257c-1.372 0.524-2.55 1.456-3.375 2.671s-1.256 2.654-1.237 4.122v1.6c-2.812 0.073-5.598-0.551-8.11-1.815s-4.673-3.131-6.29-5.433c0 0-6.4 14.4 8 20.8-3.295 2.237-7.221 3.358-11.2 3.2 14.4 8 32 0 32-18.4-0.001-0.446-0.044-0.89-0.128-1.328 1.633-1.61 2.785-3.644 3.328-5.872v0z"></path>
    </symbol>
    <symbol id="icon-star-empty" viewBox="0 0 34 32">
      <path d="M8.624 19.716l-2.421 10.321c-0.075 0.313-0.052 0.64 0.065 0.94s0.323 0.558 0.591 0.74c0.268 0.183 0.586 0.281 0.912 0.283s0.645-0.093 0.916-0.273l8.845-5.807 8.845 5.807c0.277 0.181 0.603 0.274 0.935 0.267s0.654-0.114 0.922-0.307c0.268-0.193 0.47-0.462 0.579-0.771s0.118-0.644 0.028-0.958l-2.971-10.238 7.369-6.53c0.236-0.209 0.405-0.482 0.485-0.785s0.069-0.622-0.033-0.918c-0.102-0.296-0.29-0.556-0.54-0.748s-0.553-0.308-0.87-0.332l-9.261-0.726-4.008-8.736c-0.128-0.281-0.335-0.52-0.598-0.688s-0.569-0.257-0.882-0.257c-0.313 0-0.619 0.089-0.882 0.257s-0.47 0.406-0.598 0.688l-4.008 8.736-9.261 0.725c-0.311 0.024-0.609 0.136-0.857 0.323s-0.437 0.439-0.543 0.728c-0.106 0.289-0.125 0.602-0.055 0.902s0.226 0.573 0.449 0.787l6.846 6.57zM13.259 12.796c0.29-0.023 0.568-0.121 0.806-0.286s0.426-0.39 0.545-0.651l2.922-6.368 2.922 6.368c0.119 0.261 0.308 0.486 0.545 0.651s0.516 0.264 0.806 0.286l6.453 0.504-5.314 4.709c-0.461 0.409-0.645 1.040-0.476 1.628l2.036 7.014-6.069-3.985c-0.266-0.176-0.58-0.27-0.901-0.27s-0.634 0.094-0.901 0.27l-6.342 4.164 1.706-7.272c0.063-0.267 0.054-0.546-0.024-0.81s-0.225-0.502-0.424-0.694l-4.935-4.738 6.644-0.521z"></path>
    </symbol>
    <symbol id="icon-star_full" viewBox="0 0 36 32">
      <path d="M33.932 11.487c-0.102-0.296-0.29-0.556-0.541-0.749s-0.553-0.308-0.87-0.333l-9.261-0.725-4.008-8.736c-0.128-0.281-0.335-0.52-0.598-0.688s-0.569-0.257-0.882-0.257c-0.313-0-0.619 0.089-0.882 0.256s-0.471 0.406-0.599 0.687l-4.008 8.737-9.261 0.725c-0.311 0.024-0.609 0.136-0.857 0.323s-0.437 0.439-0.543 0.728c-0.106 0.289-0.125 0.602-0.055 0.902s0.226 0.573 0.449 0.787l6.844 6.57-2.421 10.321c-0.074 0.312-0.050 0.639 0.068 0.938s0.324 0.556 0.592 0.739c0.268 0.182 0.585 0.281 0.911 0.283s0.645-0.092 0.915-0.27l8.845-5.807 8.845 5.807c0.277 0.181 0.603 0.274 0.935 0.267s0.654-0.114 0.922-0.307c0.268-0.193 0.471-0.462 0.579-0.771s0.118-0.644 0.028-0.958l-2.971-10.238 7.369-6.53c0.482-0.429 0.66-1.097 0.452-1.704z"></path>
    </symbol>
    <symbol id="icon-tick" viewBox="0 0 45 32">
      <path d="M42.17 0.638c-0.834-0.851-2.188-0.851-3.022 0l-25.606 26.102-9.843-10.033c-0.835-0.851-2.188-0.851-3.023 0s-0.835 2.23 0 3.081l11.354 11.574c0.834 0.851 2.189 0.85 3.023 0l27.117-27.643c0.835-0.851 0.835-2.23 0-3.081z"></path>
    </symbol>
    <symbol id="icon-clock" viewBox="0 0 26 32">
      <path d="M23.664 2.689h1.614c0.302 0 0.538-0.235 0.538-0.538v-1.076c0-0.303-0.235-0.538-0.538-0.538h-24.74c-0.303 0-0.538 0.235-0.538 0.538v1.076c0 0.303 0.235 0.538 0.538 0.538h1.613c0 6.219 2.975 10.723 6.269 12.908-3.294 2.185-6.269 6.689-6.269 12.908h-1.613c-0.303 0-0.538 0.235-0.538 0.538v1.076c0 0.302 0.235 0.538 0.538 0.538h24.74c0.302 0 0.538-0.235 0.538-0.538v-1.076c0-0.302-0.235-0.538-0.538-0.538h-1.614c0-6.219-2.975-10.723-6.269-12.908 3.294-2.185 6.269-6.689 6.269-12.908zM21.513 2.689c0 2.454-0.555 4.622-1.429 6.454h-14.353c-0.874-1.832-1.429-4-1.429-6.454h17.21zM20.555 23.126h-15.294c1.244-3.244 3.479-5.546 5.714-6.454h3.866c2.235 0.908 4.471 3.21 5.714 6.454z"></path>
    </symbol>
    <symbol id="icon-hard" viewBox="0 0 34 32">
      <path d="M17.067 30.172c0.305 0 0.61-0.114 0.838-0.343l11.867-11.428c0.171-0.171 4.362-4 4.362-8.571 0-5.581-3.41-8.914-9.105-8.914-3.333 0-6.457 2.629-7.962 4.114-1.505-1.486-4.629-4.114-7.962-4.114-5.695 0-9.105 3.333-9.105 8.914 0 4.571 4.191 8.4 4.343 8.533l11.886 11.467c0.229 0.229 0.533 0.343 0.838 0.343z"></path>
    </symbol>
    <symbol id="icon-vive_line" viewBox="0 0 41 32">
      <path d="M21.673 12.898l2.674 1.245 3.98-1.184v-2.775c0-4.714-3.98-8.49-8.735-8.49-4.735 0-8.735 3.755-8.735 8.429v12.653c0 1.163-0.939 2.082-2.082 2.082s-2.082-0.918-2.082-2.082v-5.347h-6.694c0 5.367 0 5.429 0 5.429 0 4.837 3.918 8.755 8.755 8.755 4.796 0 8.755-3.857 8.755-8.633v-12.49c0-1.143 0.939-2.082 2.082-2.082s2.082 0.939 2.082 2.082v2.408zM32.49 17.429v5.612c0 1.143-0.939 2.061-2.082 2.061s-2.082-0.918-2.082-2.061v-5.51l-3.98 1.184-2.674-1.245v5.469c0 4.796 3.939 8.674 8.755 8.674 4.837 0 8.755-3.918 8.755-8.755 0 0 0-0.061 0-5.429h-6.694z"></path>
    </symbol>
    <symbol id="icon-cursor" viewBox="0 0 21 32">
      <path d="M19.042 18.067l-17.21-17.21c-0.202-0.219-0.471-0.319-0.756-0.319-0.134 0-0.286 0.034-0.403 0.084-0.403 0.168-0.672 0.555-0.672 0.992v25.277c0 0.437 0.269 0.824 0.672 0.992 0.118 0.050 0.269 0.084 0.403 0.084 0.286 0 0.555-0.118 0.756-0.319l5.244-5.244 3.21 7.597c0.235 0.538 0.857 0.807 1.412 0.571l2.975-1.261c0.538-0.235 0.807-0.857 0.571-1.412l-3.378-8h6.42c0.437 0 0.824-0.269 0.992-0.672 0.168-0.387 0.084-0.857-0.235-1.16z"></path>
    </symbol>
    <symbol id="icon-triangle" viewBox="0 0 28 32">
      <path d="M26.088 12.891c2.441 1.354 2.441 4.864 0 6.218l-21.155 11.739c-2.37 1.315-5.281-0.399-5.281-3.109v-23.477c0-2.71 2.911-4.424 5.281-3.109l21.155 11.739z"></path>
    </symbol>
    <symbol id="icon-burger" viewBox="0 0 32 32">
      <path d="M4.799 8.001c0-0.424 0.169-0.831 0.469-1.131s0.707-0.469 1.131-0.469h19.2c0.424 0 0.831 0.169 1.131 0.469s0.469 0.707 0.469 1.131-0.169 0.831-0.469 1.131c-0.3 0.3-0.707 0.469-1.131 0.469h-19.2c-0.424 0-0.831-0.169-1.131-0.469s-0.469-0.707-0.469-1.131z"></path>
      <path d="M4.799 16.001c0-0.424 0.169-0.831 0.469-1.131s0.707-0.469 1.131-0.469h19.2c0.424 0 0.831 0.169 1.131 0.469s0.469 0.707 0.469 1.131c0 0.424-0.169 0.831-0.469 1.131s-0.707 0.469-1.131 0.469h-19.2c-0.424 0-0.831-0.169-1.131-0.469s-0.469-0.707-0.469-1.131z"></path>
      <path d="M4.799 24.001c0-0.424 0.169-0.831 0.469-1.131s0.707-0.469 1.131-0.469h19.2c0.424 0 0.831 0.169 1.131 0.469s0.469 0.707 0.469 1.131c0 0.424-0.169 0.831-0.469 1.131s-0.707 0.469-1.131 0.469h-19.2c-0.424 0-0.831-0.169-1.131-0.469s-0.469-0.707-0.469-1.131z"></path>
    </symbol>
    <symbol id="icon-close" viewBox="0 0 32 32">
      <path d="M32 3.223l-3.223-3.223-12.777 12.777-12.777-12.777-3.223 3.223 12.777 12.777-12.777 12.777 3.223 3.223 12.777-12.777 12.777 12.777 3.223-3.223-12.777-12.777 12.777-12.777z"></path>
    </symbol>
    <symbol id="user-icon" viewBox="0 0 32 32">
      <path d="M16 16c4.42 0 8-3.58 8-8s-3.58-8-8-8-8 3.58-8 8 3.58 8 8 8zm0 4c-5.34 0-16 2.68-16 8v2c0 1.1.9 2 2 2h28c1.1 0 2-.9 2-2v-2c0-5.32-10.66-8-16-8z"/>
    </symbol>
    <symbol id="icon-lock" viewBox="0 0 32 32">
      <path d="M24.5 13h-0.5v-6c0-3.308-2.692-6-6-6h-4c-3.308 0-6 2.692-6 6v6h-0.5c-0.825 0-1.5 0.675-1.5 1.5v15c0 0.825 0.675 1.5 1.5 1.5h17c0.825 0 1.5-0.675 1.5-1.5v-15c0-0.825-0.675-1.5-1.5-1.5zM12 7c0-1.103 0.897-2 2-2h4c1.103 0 2 0.897 2 2v6h-8v-6z"></path>
    </symbol>
    <symbol id="icon-eye" viewBox="0 0 32 32">
      <path d="M16 6c-6.979 0-13.028 4.064-16 10 2.972 5.936 9.021 10 16 10s13.027-4.064 16-10c-2.972-5.936-9.021-10-16-10zM23.889 11.303c1.88 1.199 3.473 2.805 4.67 4.697-1.197 1.891-2.79 3.498-4.67 4.697-2.362 1.507-5.090 2.303-7.889 2.303s-5.527-0.796-7.889-2.303c-1.88-1.199-3.473-2.805-4.67-4.697 1.197-1.891 2.79-3.498 4.67-4.697 0.122-0.078 0.246-0.154 0.371-0.228-0.311 0.854-0.482 1.776-0.482 2.737 0 4.418 3.582 8 8 8s8-3.582 8-8c0-0.962-0.17-1.883-0.482-2.737 0.124 0.074 0.248 0.15 0.371 0.228v0zM16 13c0 1.657-1.343 3-3 3s-3-1.343-3-3 1.343-3 3-3 3 1.343 3 3z"></path>
    </symbol>
    <symbol id="icon-eye-off" viewBox="0 0 32 32">
      <path d="M29.561 0.439c-0.586-0.586-1.535-0.586-2.121 0l-6.318 6.318c-1.623-0.492-3.342-0.757-5.122-0.757-6.979 0-13.028 4.064-16 10 1.285 2.566 3.145 4.782 5.407 6.472l-4.968 4.968c-0.586 0.586-0.586 1.535 0 2.121 0.293 0.293 0.677 0.439 1.061 0.439s0.768-0.146 1.061-0.439l27-27c0.586-0.586 0.586-1.536 0-2.121zM13 10c1.32 0 2.44 0.853 2.841 2.037l-3.804 3.804c-1.184-0.401-2.037-1.521-2.037-2.841 0-1.657 1.343-3 3-3zM3.441 16c1.197-1.891 2.79-3.498 4.67-4.697 0.122-0.078 0.246-0.154 0.371-0.228-0.311 0.854-0.482 1.776-0.482 2.737 0 1.715 0.54 3.304 1.459 4.607l-1.904 1.904c-1.639-1.151-3.038-2.621-4.114-4.323z"></path>
      <path d="M24 13.813c0-0.849-0.133-1.667-0.378-2.434l-10.056 10.056c0.768 0.245 1.586 0.378 2.435 0.378 4.418 0 8-3.582 8-8z"></path>
      <path d="M25.938 9.062l-2.168 2.168c0.040 0.025 0.079 0.049 0.118 0.074 1.88 1.199 3.473 2.805 4.67 4.697-1.197 1.891-2.79 3.498-4.67 4.697-2.362 1.507-5.090 2.303-7.889 2.303-1.208 0-2.403-0.149-3.561-0.439l-2.403 2.403c1.866 0.671 3.873 1.036 5.964 1.036 6.978 0 13.027-4.064 16-10-1.407-2.81-3.504-5.2-6.062-6.938z"></path>
    </symbol>
  </defs>
</svg>